# xmcd
#
# Track frame offsets:
#       150
#       17913
#       38155
#       55891
#       71345
#       90167
#       104243
#       121762
#       149913
#       163793
#
# Disc length: 2384 seconds
#
# Revision: 0
# Processed by: cddbd v1.5.1PL2 Copyright (c) Steve Scherf et al.
# Submitted via: CD-DA_X-Tractor v0.24
#
DISCID=8a094e0a
DTITLE=Steve Walsh - Mister Dog
DYEAR=2005
DGENRE=Easy Listening
TTITLE0=Be with You
TTITLE1=Heaven in your Hands
TTITLE2=Regret
TTITLE3=Wasting my Time
TTITLE4=Say Hello
TTITLE5=Memories of You
TTITLE6=Not much more than Love
TTITLE7=Set me on Fire
TTITLE8=You've gotta Try
TTITLE9=Strawberry Wine
EXTD=
EXTT0=
EXTT1=
EXTT2=
EXTT3=
EXTT4=
EXTT5=
EXTT6=
EXTT7=
EXTT8=
EXTT9=
PLAYORDER=
